<svg width="53" height="53" viewBox="0 0 53 53" fill="none" xmlns="http://www.w3.org/2000/svg">
<path d="M23.4808 11.92C23.4235 11.4088 23.4528 10.88 23.4547 10.3663L23.461 1.92254C23.4629 1.53348 23.2212 0.88314 23.6862 0.828734C25.4084 0.783817 27.135 0.869216 28.8559 0.804688C28.7732 4.28732 29.0086 7.9338 28.8311 11.3702C28.8203 11.5866 28.8648 11.8605 28.6104 11.9105C28.2808 11.9384 27.9398 11.9149 27.6084 11.9137L25.7946 11.9099C25.0585 11.9099 24.2022 11.9801 23.4808 11.92Z" fill="#D51F36"/>
<path d="M40.2914 18.3475C39.8524 18.7555 39.4478 18.2684 39.089 17.9824C38.4095 17.4409 37.7263 16.9025 36.9966 16.4274C35.3119 15.3305 35.3227 15.0913 36.6861 13.4534C38.4757 11.3044 40.2424 9.12498 41.962 6.9209C42.6892 7.19926 45.9357 9.62603 46.6985 10.1884C45.0883 11.9111 43.3572 14.3891 41.9118 16.2762C41.3869 16.9614 40.9015 17.7376 40.2914 18.3475Z" fill="#D51F36"/>
<path d="M5.52612 10.2661C7.07207 9.14321 8.70135 8.14807 10.2174 6.9834C10.8199 7.28706 14.5664 12.3867 15.723 13.7652C17.2778 15.6182 16.4184 15.6732 14.7808 16.8354C14.2025 17.2447 12.668 18.7048 11.9956 18.3878C11.2798 17.8223 10.4401 16.5013 9.87258 15.7321C8.80823 14.2878 6.76351 11.4839 5.52612 10.2661Z" fill="#D51F36"/>
<path d="M11.598 23.1132C11.9104 22.6052 12.3551 22.127 12.759 21.6885C16.113 18.0503 20.6058 15.9152 25.5757 15.7026C31.3466 15.5337 37.3809 18.3147 40.6777 23.0765C44.3281 23.3372 48.5073 23.043 52.2347 23.117C52.2042 24.7954 52.1386 26.8755 52.2557 28.5349C49.3674 28.5893 46.3538 28.5836 43.4654 28.5342C46.7609 40.0431 39.1546 51.6442 26.7597 52.1851C20.2521 52.4205 13.6421 48.853 10.4637 43.1859C7.85909 38.5424 7.35523 33.606 8.79112 28.5602C8.33687 28.5153 7.8661 28.5399 7.40867 28.5412L2.02268 28.5425C1.34959 28.5425 0.673314 28.5254 0.00213272 28.569L0.0034044 25.0858C0.0034044 24.419 -0.0150425 23.7484 0.0339442 23.0829C0.551168 23.1195 1.07221 23.1088 1.5907 23.1088L11.598 23.1132ZM26.1057 21.2912C21.7242 21.4171 18.0203 23.3384 15.5863 27.0729C11.7131 33.0164 13.4919 40.4283 19.0981 44.524C20.7184 42.3142 23.4769 41.0559 26.1954 41.0027C28.403 41.0711 30.6984 41.9352 32.2335 43.556C32.523 43.8616 32.7749 44.2057 33.0701 44.5037C33.6223 44.2488 34.1026 43.8553 34.553 43.4529C38.7341 39.7191 39.8697 33.532 37.5113 28.4824C35.5271 24.2343 30.8638 21.154 26.1057 21.2912Z" fill="#D51F36"/>
</svg>
